<svg id="图层_1" data-name="图层 1" xmlns="http://www.w3.org/2000/svg" viewBox="0 0 70.7 70.72"><defs><style>.cls-1{fill:#146964;}</style></defs><title>preloader</title><path class="cls-1" d="M49.53,17.53a14,14,0,0,0-20.28,4.1,14.58,14.58,0,0,1,4.47-.2A14.84,14.84,0,0,1,55,28.52,14.1,14.1,0,0,0,49.53,17.53Z" transform="translate(-13.67 -13.65)"/><path d="M43.78,28a13.79,13.79,0,0,0-25.52,7.31A14.19,14.19,0,0,1,22,32.9,14.87,14.87,0,0,1,44,28.36.64.64,0,0,0,43.78,28Z" transform="translate(-13.67 -13.65)"/><path class="cls-1" d="M34,33.34a13.76,13.76,0,0,0-18.44,19,14.81,14.81,0,0,1,2.08-4,14.86,14.86,0,0,1,16.76-14.9A.61.61,0,0,1,34,33.34Z" transform="translate(-13.67 -13.65)"/><path class="cls-1" d="M19.45,55.32A14.64,14.64,0,0,1,28.6,43a13.8,13.8,0,0,0-6.89,25.76,14.29,14.29,0,0,1-.2-4.47A14.45,14.45,0,0,1,19.45,55.32Z" transform="translate(-13.67 -13.65)"/><path class="cls-1" d="M32.82,76a14.87,14.87,0,0,1-4.54-21.91A13.77,13.77,0,0,0,35.2,79.74,14.44,14.44,0,0,1,32.82,76Z" transform="translate(-13.67 -13.65)"/><path d="M48.47,80.47a14.86,14.86,0,0,1-14.9-16.76A13.81,13.81,0,0,0,52.45,82.55,17.92,17.92,0,0,1,48.47,80.47Z" transform="translate(-13.67 -13.65)"/><path class="cls-1" d="M64.28,76.49A14.84,14.84,0,0,1,43,69.4a13.8,13.8,0,0,0,25.76,6.89A14.29,14.29,0,0,1,64.28,76.49Z" transform="translate(-13.67 -13.65)"/><path class="cls-1" d="M76,65.18a14.87,14.87,0,0,1-21.91,4.54A13.77,13.77,0,0,0,79.74,62.8,14.44,14.44,0,0,1,76,65.18Z" transform="translate(-13.67 -13.65)"/><path class="cls-1" d="M82.55,45.55a15.1,15.1,0,0,1-2.08,4,14.86,14.86,0,0,1-16.76,14.9A13.81,13.81,0,0,0,82.55,45.55Z" transform="translate(-13.67 -13.65)"/><path d="M76.29,29.25a14.29,14.29,0,0,1,.2,4.47A14.84,14.84,0,0,1,69.4,55a13.8,13.8,0,0,0,6.89-25.76Z" transform="translate(-13.67 -13.65)"/><path class="cls-1" d="M65.18,22a13.94,13.94,0,0,0-19.63-6.59,15.1,15.1,0,0,1,4,2.08,14.86,14.86,0,0,1,14.9,16.76A13.75,13.75,0,0,0,65.18,22Z" transform="translate(-13.67 -13.65)"/><path class="cls-1" d="M76.29,29.25a13.84,13.84,0,0,0-13.57-11A14.19,14.19,0,0,1,65.1,22,14.87,14.87,0,0,1,69.64,44,13.8,13.8,0,0,0,76.29,29.25Z" transform="translate(-13.67 -13.65)"/></svg>